<svg xmlns="http://www.w3.org/2000/svg" width="42.936" height="34.937" viewBox="0 0 42.936 34.937">
  <path id="icon_twitter" d="M42.936,14.14a17.815,17.815,0,0,1-5.059,1.392,8.838,8.838,0,0,0,3.876-4.877,17.511,17.511,0,0,1-5.6,2.138,8.806,8.806,0,0,0-15.24,6.023,8.615,8.615,0,0,0,.228,2.011A24.965,24.965,0,0,1,2.983,11.61,8.834,8.834,0,0,0,5.713,23.384a8.6,8.6,0,0,1-3.993-1.1v.109a8.816,8.816,0,0,0,7.069,8.643,8.864,8.864,0,0,1-2.319.309,8.315,8.315,0,0,1-1.656-.164A8.823,8.823,0,0,0,13.049,37.3,17.663,17.663,0,0,1,2.1,41.08,17.852,17.852,0,0,1,0,40.951a24.677,24.677,0,0,0,13.493,3.985c16.213,0,25.075-13.439,25.075-25.094,0-.382-.009-.764-.027-1.137A18.079,18.079,0,0,0,42.936,14.14Z" transform="translate(0 -10)" fill="#4b4b46"/>
</svg>
