<svg xmlns="http://www.w3.org/2000/svg" width="42.127" height="40.121" viewBox="0 0 42.127 40.121">
  <path id="icon_line" d="M33.991,18.309a1.107,1.107,0,1,1,0,2.213h-3.08V22.5h3.08a1.1,1.1,0,1,1,0,2.21H29.8a1.107,1.107,0,0,1-1.1-1.1V15.228a1.109,1.109,0,0,1,1.106-1.106H34a1.106,1.106,0,1,1-.005,2.212H30.911v1.975ZM27.225,23.6a1.1,1.1,0,0,1-.758,1.046,1.131,1.131,0,0,1-.349.054,1.086,1.086,0,0,1-.9-.439l-4.288-5.822V23.6a1.1,1.1,0,1,1-2.206.043q0-.021,0-.043V15.228a1.1,1.1,0,0,1,.755-1.044,1.019,1.019,0,0,1,.34-.058,1.137,1.137,0,0,1,.869.446l4.321,5.845V15.228a1.106,1.106,0,0,1,2.212,0Zm-10.077,0a1.1,1.1,0,0,1-2.208,0h0V15.228a1.1,1.1,0,0,1,2.208,0Zm-4.329,1.1H8.631a1.112,1.112,0,0,1-1.106-1.1V15.228a1.106,1.106,0,0,1,2.212,0V22.5h3.082a1.1,1.1,0,0,1,0,2.21M42.127,19.1C42.127,9.673,32.675,2,21.064,2S0,9.673,0,19.1c0,8.444,7.5,15.52,17.614,16.866.686.144,1.62.453,1.857,1.035a4.287,4.287,0,0,1,.067,1.9l-.288,1.79c-.079.528-.421,2.082,1.841,1.132s12.14-7.16,16.563-12.245c3.026-3.316,4.473-6.711,4.473-10.475" transform="translate(0 -2)" fill="#4b4b46"/>
</svg>
