<svg xmlns="http://www.w3.org/2000/svg" width="20.951" height="24.211" viewBox="0 0 20.951 24.211">
  <g id="icon_bag" transform="translate(-971.492 -6979.789)">
    <path id="パス_173" data-name="パス 173" d="M53.584,131.72H36.321L34.477,149.7H55.428ZM40.263,135.9a.773.773,0,1,1,.773-.773A.773.773,0,0,1,40.263,135.9Zm9.378,0a.773.773,0,1,1,.773-.773A.773.773,0,0,1,49.641,135.9Z" transform="translate(937.015 6854.297)" fill="#707070"/>
    <path id="パス_174" data-name="パス 174" d="M145.148,2.443a4.121,4.121,0,0,1,7.035,2.914h1.236a5.357,5.357,0,0,0-10.715,0h1.236A4.107,4.107,0,0,1,145.148,2.443Z" transform="translate(833.947 6979.789)" fill="#707070"/>
  </g>
</svg>
