<svg xmlns="http://www.w3.org/2000/svg" width="278.612" height="41.278" viewBox="0 0 278.612 41.278">
  <g id="logo" transform="translate(0)">
    <path id="T" d="M68.819,545.951v22.011H66.2V545.951h-4v-2.426H72.821v2.426Z" transform="translate(-62.192 -543.131)" fill="#4b4b46"/>
    <path id="O" d="M124.972,565.3c5.282,0,9.478-4.558,9.478-10.235,0-5.574-4.2-10.1-9.478-10.1s-9.479,4.528-9.479,10.1c0,5.677,4.2,10.235,9.479,10.235m0,2.429c-6.925,0-12.173-5.642-12.173-12.664a12.175,12.175,0,1,1,24.338,0c0,7.022-5.249,12.664-12.165,12.664" transform="translate(-93.16 -542.508)" fill="#4b4b46"/>
    <path id="K" d="M215.364,567.957l-6.758-12.465,6.729-11.972h2.756l-6.731,11.908,6.828,12.529Zm-9.938-24.437h2.624v24.437h-2.624Z" transform="translate(-149.84 -543.127)" fill="#4b4b46"/>
    <path id="Y" d="M271.633,567.957v-9.645l-8.921-14.5v-.3H265.5l7.51,12.2,7.475-12.2h2.692v.3l-8.923,14.5v9.645Z" transform="translate(-184.894 -543.127)" fill="#4b4b46"/>
    <path id="U" d="M348.69,568.355a5.532,5.532,0,0,1-5.61-5.8V543.525H345.7v19.026c0,1.865.988,3.375,2.989,3.375,1.932,0,3.014-1.509,3.014-3.375V543.525h2.625v19.026a5.558,5.558,0,0,1-5.639,5.8" transform="translate(-234.073 -543.13)" fill="#4b4b46"/>
    <path id="B" d="M431.9,556.71v8.855h.918a4.429,4.429,0,1,0-.03-8.855Zm0-10.76v8.526h.265a4.187,4.187,0,0,0,4.23-4.425c0-2.691-1.869-4.1-4.3-4.1Zm-2.621-2.426h2.819c3.9,0,6.984,2.23,6.984,6.233A6.169,6.169,0,0,1,436.1,555.1a6.244,6.244,0,0,1,3.97,6c0,4.327-3.249,6.856-7.254,6.856h-3.539Z" transform="translate(-286.818 -543.13)" fill="#4b4b46"/>
    <path id="E" d="M486.812,543.525h7.283v2.426h-4.662v8.432h4.006v2.392h-4.006V565.7h4.662v2.264h-7.283Z" transform="translate(-322.026 -543.131)" fill="#4b4b46"/>
    <path id="A" d="M543.366,548.178l-4.725,9.611h9.449Zm5.936,12.037H537.429l-3.609,7.382H531.16v-.264l12.173-24.4h.132l12.168,24.4v.264h-2.69Z" transform="translate(-349.163 -542.766)" fill="#4b4b46"/>
    <path id="U-2" data-name="U" d="M624.5,568.355a5.533,5.533,0,0,1-5.61-5.8V543.525h2.621v19.026c0,1.865.991,3.375,2.989,3.375,1.934,0,3.016-1.509,3.016-3.375V543.525h2.622v19.026a5.556,5.556,0,0,1-5.637,5.8" transform="translate(-402.846 -543.13)" fill="#4b4b46"/>
    <path id="T-2" data-name="T" d="M682.547,545.951v22.011h-2.621V545.951h-4v-2.426h10.627v2.426Z" transform="translate(-437.746 -543.131)" fill="#4b4b46"/>
    <path id="Y-2" data-name="Y" d="M736.3,567.957v-9.645l-8.924-14.5v-.3h2.789l7.511,12.2,7.478-12.2h2.691v.3l-8.92,14.5v9.645Z" transform="translate(-469.231 -543.127)" fill="#4b4b46"/>
    <path id="D" d="M64.168,625.584v6.2h.663a3.1,3.1,0,0,0,0-6.2Zm-1.825-1.664h2.488a4.767,4.767,0,1,1,0,9.531H62.343Z" transform="translate(-62.284 -592.326)" fill="#d12a59"/>
    <path id="E-2" data-name="E" d="M87.642,623.921h3.282v1.666H89.466v2.186h1.2v1.661h-1.2v2.482h1.457v1.536H87.642Z" transform="translate(-77.765 -592.326)" fill="#d12a59"/>
    <path id="P" d="M104.357,625.584v2.392h.208c.548,0,.994-.42.994-1.2a1.049,1.049,0,0,0-.994-1.189Zm0,4.054v3.812h-1.819V623.92h2.027a2.859,2.859,0,1,1,0,5.718Z" transform="translate(-86.881 -592.326)" fill="#d12a59"/>
    <path id="A-2" data-name="A" d="M119.486,627.118l-1.22,2.558h2.46Zm2.046,4.22H117.48l-.9,1.893h-1.852v-.155l4.754-9.515h.052l4.757,9.515v.155H122.44Z" transform="translate(-94.342 -592.105)" fill="#d12a59"/>
    <path id="R" d="M144.433,625.584v2.239h.238c.542,0,.983-.4.983-1.152a.986.986,0,0,0-.983-1.087Zm0,3.813v4.053h-1.822V623.92h2.061a2.744,2.744,0,0,1,2.878,2.751,2.584,2.584,0,0,1-1.133,2.2l1.443,4.58h-1.93l-1.169-4.053h-.328Z" transform="translate(-111.402 -592.326)" fill="#d12a59"/>
    <path id="T-3" data-name="T" d="M164.147,625.584v7.866h-1.826v-7.866h-1.432V623.92h4.692v1.664Z" transform="translate(-122.587 -592.326)" fill="#d12a59"/>
    <path id="M" d="M183.56,633.381l-2.9-4.285v4.156H178.9v-9.656h.1l4.611,6.907,4.61-6.907h.1v9.656h-1.762V629.1l-2.9,4.285Z" transform="translate(-133.607 -592.127)" fill="#d12a59"/>
    <path id="E-3" data-name="E" d="M210.142,623.921h3.279v1.666h-1.456v2.186h1.2v1.661h-1.2v2.482h1.456v1.536h-3.279Z" transform="translate(-152.725 -592.326)" fill="#d12a59"/>
    <path id="N" d="M231.835,633.381l-5.093-5.36v5.231h-1.716v-9.656h.1l5.092,5.526v-5.4h1.722v9.66Z" transform="translate(-161.833 -592.127)" fill="#d12a59"/>
    <path id="T-4" data-name="T" d="M252.028,625.584v7.866H250.2v-7.866h-1.433V623.92h4.692v1.664Z" transform="translate(-176.363 -592.326)" fill="#d12a59"/>
    <path id="S" d="M278.091,625.987a2.359,2.359,0,0,1,2.4-2.454,2.31,2.31,0,0,1,2.388,2.3h-1.828a.609.609,0,0,0-.56-.664c-.311,0-.546.295-.546.7,0,.562.354.934,1.356,1.585,1.236.808,2.087,1.677,2.087,3.06a2.823,2.823,0,0,1-5.645.113h1.854a1.029,1.029,0,0,0,.959,1.115,1,1,0,0,0,.966-1.1c0-.8-.571-1.33-1.667-2.034a3.112,3.112,0,0,1-1.76-2.622" transform="translate(-194.089 -592.089)" fill="#d12a59"/>
    <path id="T-5" data-name="T" d="M299.777,625.584v7.866h-1.825v-7.866h-1.433V623.92h4.692v1.664Z" transform="translate(-205.582 -592.326)" fill="#d12a59"/>
    <path id="O-2" data-name="O" d="M320.987,628.429a3.042,3.042,0,1,0-3.034,3.274,3.074,3.074,0,0,0,3.034-3.274m-7.954,0a4.922,4.922,0,1,1,4.92,4.936,4.829,4.829,0,0,1-4.92-4.936" transform="translate(-215.687 -592.087)" fill="#d12a59"/>
    <path id="R-2" data-name="R" d="M346.491,625.584v2.239h.238c.547,0,.986-.4.986-1.152a.986.986,0,0,0-.986-1.087Zm0,3.813v4.053h-1.819V623.92h2.058a2.742,2.742,0,0,1,2.876,2.751,2.576,2.576,0,0,1-1.133,2.2l1.449,4.58h-1.933l-1.173-4.053h-.325Z" transform="translate(-235.047 -592.326)" fill="#d12a59"/>
    <path id="E-4" data-name="E" d="M363.948,623.921h3.282v1.666h-1.457v2.186h1.2v1.661h-1.2v2.482h1.457v1.536h-3.282Z" transform="translate(-246.843 -592.326)" fill="#d12a59"/>
  </g>
</svg>
